<?xml version="1.0" encoding="utf-8"?>
<svg xmlns="http://www.w3.org/2000/svg" xmlns:xlink="http://www.w3.org/1999/xlink" width="600" height="400" viewBox="0 0 2400 1600">
<defs>
  <clipPath id="clip390">
    <rect x="0" y="0" width="2400" height="1600"/>
  </clipPath>
</defs>
<path clip-path="url(#clip390)" d="M0 1600 L2400 1600 L2400 0 L0 0  Z" fill="#ffffff" fill-rule="evenodd" fill-opacity="1"/>
<defs>
  <clipPath id="clip391">
    <rect x="480" y="0" width="1681" height="1600"/>
  </clipPath>
</defs>
<path clip-path="url(#clip390)" d="M193.936 1486.45 L2352.76 1486.45 L2352.76 123.472 L193.936 123.472  Z" fill="#ffffff" fill-rule="evenodd" fill-opacity="1"/>
<defs>
  <clipPath id="clip392">
    <rect x="193" y="123" width="2160" height="1364"/>
  </clipPath>
</defs>
<path clip-path="url(#clip390)" d="M745.25 12.096 L757.443 12.096 L772.877 53.2532 L788.392 12.096 L800.585 12.096 L800.585 72.576 L792.605 72.576 L792.605 19.4686 L777.009 60.9499 L768.786 60.9499 L753.19 19.4686 L753.19 72.576 L745.25 72.576 L745.25 12.096 Z" fill="#000000" fill-rule="nonzero" fill-opacity="1" /><path clip-path="url(#clip390)" d="M837.124 49.7694 Q828.091 49.7694 824.607 51.8354 Q821.123 53.9013 821.123 58.8839 Q821.123 62.8538 823.716 65.2034 Q826.349 67.5124 830.845 67.5124 Q837.043 67.5124 840.77 63.1374 Q844.537 58.7219 844.537 51.4303 L844.537 49.7694 L837.124 49.7694 M851.991 46.6907 L851.991 72.576 L844.537 72.576 L844.537 65.6895 Q841.985 69.8214 838.178 71.8063 Q834.37 73.7508 828.86 73.7508 Q821.893 73.7508 817.761 69.8619 Q813.67 65.9325 813.67 59.3701 Q813.67 51.7138 818.774 47.825 Q823.918 43.9361 834.086 43.9361 L844.537 43.9361 L844.537 43.2069 Q844.537 38.0623 841.135 35.2672 Q837.772 32.4315 831.656 32.4315 Q827.767 32.4315 824.08 33.3632 Q820.394 34.295 816.991 36.1584 L816.991 29.2718 Q821.083 27.692 824.931 26.9223 Q828.779 26.1121 832.425 26.1121 Q842.269 26.1121 847.13 31.2163 Q851.991 36.3204 851.991 46.6907 Z" fill="#000000" fill-rule="nonzero" fill-opacity="1" /><path clip-path="url(#clip390)" d="M867.344 9.54393 L874.798 9.54393 L874.798 72.576 L867.344 72.576 L867.344 9.54393 Z" fill="#000000" fill-rule="nonzero" fill-opacity="1" /><path clip-path="url(#clip390)" d="M890.394 9.54393 L897.847 9.54393 L897.847 72.576 L890.394 72.576 L890.394 9.54393 Z" fill="#000000" fill-rule="nonzero" fill-opacity="1" /><path clip-path="url(#clip390)" d="M931.024 32.4315 Q925.029 32.4315 921.545 37.1306 Q918.061 41.7891 918.061 49.9314 Q918.061 58.0738 921.505 62.7728 Q924.988 67.4314 931.024 67.4314 Q936.979 67.4314 940.463 62.7323 Q943.947 58.0333 943.947 49.9314 Q943.947 41.8701 940.463 37.1711 Q936.979 32.4315 931.024 32.4315 M931.024 26.1121 Q940.746 26.1121 946.296 32.4315 Q951.846 38.7509 951.846 49.9314 Q951.846 61.0714 946.296 67.4314 Q940.746 73.7508 931.024 73.7508 Q921.262 73.7508 915.712 67.4314 Q910.203 61.0714 910.203 49.9314 Q910.203 38.7509 915.712 32.4315 Q921.262 26.1121 931.024 26.1121 Z" fill="#000000" fill-rule="nonzero" fill-opacity="1" /><path clip-path="url(#clip390)" d="M996.851 28.9478 L996.851 35.9153 Q993.692 34.1734 990.492 33.3227 Q987.332 32.4315 984.091 32.4315 Q976.84 32.4315 972.83 37.0496 Q968.819 41.6271 968.819 49.9314 Q968.819 58.2358 972.83 62.8538 Q976.84 67.4314 984.091 67.4314 Q987.332 67.4314 990.492 66.5807 Q993.692 65.6895 996.851 63.9476 L996.851 70.8341 Q993.732 72.2924 990.37 73.0216 Q987.048 73.7508 983.281 73.7508 Q973.032 73.7508 966.996 67.3098 Q960.96 60.8689 960.96 49.9314 Q960.96 38.832 967.037 32.472 Q973.154 26.1121 983.767 26.1121 Q987.21 26.1121 990.492 26.8413 Q993.773 27.5299 996.851 28.9478 Z" fill="#000000" fill-rule="nonzero" fill-opacity="1" /><path clip-path="url(#clip390)" d="M1038.74 28.5427 L1038.74 35.5912 Q1035.58 33.9709 1032.18 33.1607 Q1028.77 32.3505 1025.13 32.3505 Q1019.58 32.3505 1016.78 34.0519 Q1014.03 35.7533 1014.03 39.156 Q1014.03 41.7486 1016.01 43.2475 Q1018 44.7058 1023.99 46.0426 L1026.54 46.6097 Q1034.48 48.3111 1037.81 51.4303 Q1041.17 54.509 1041.17 60.0587 Q1041.17 66.3781 1036.15 70.0644 Q1031.16 73.7508 1022.41 73.7508 Q1018.77 73.7508 1014.8 73.0216 Q1010.87 72.3329 1006.49 70.9151 L1006.49 63.2184 Q1010.62 65.3654 1014.63 66.4591 Q1018.65 67.5124 1022.57 67.5124 Q1027.84 67.5124 1030.68 65.73 Q1033.51 63.9071 1033.51 60.6258 Q1033.51 57.5877 1031.45 55.9673 Q1029.42 54.3469 1022.49 52.8481 L1019.9 52.2405 Q1012.97 50.7821 1009.9 47.7845 Q1006.82 44.7463 1006.82 39.4801 Q1006.82 33.0797 1011.35 29.5959 Q1015.89 26.1121 1024.24 26.1121 Q1028.37 26.1121 1032.01 26.7198 Q1035.66 27.3274 1038.74 28.5427 Z" fill="#000000" fill-rule="nonzero" fill-opacity="1" /><path clip-path="url(#clip390)" d="M1102.38 9.54393 L1102.38 15.7418 L1095.25 15.7418 Q1091.24 15.7418 1089.66 17.3622 Q1088.12 18.9825 1088.12 23.1955 L1088.12 27.2059 L1100.39 27.2059 L1100.39 32.9987 L1088.12 32.9987 L1088.12 72.576 L1080.62 72.576 L1080.62 32.9987 L1073.49 32.9987 L1073.49 27.2059 L1080.62 27.2059 L1080.62 24.0462 Q1080.62 16.471 1084.15 13.0277 Q1087.67 9.54393 1095.33 9.54393 L1102.38 9.54393 Z" fill="#000000" fill-rule="nonzero" fill-opacity="1" /><path clip-path="url(#clip390)" d="M1126.2 32.4315 Q1120.2 32.4315 1116.72 37.1306 Q1113.23 41.7891 1113.23 49.9314 Q1113.23 58.0738 1116.68 62.7728 Q1120.16 67.4314 1126.2 67.4314 Q1132.15 67.4314 1135.64 62.7323 Q1139.12 58.0333 1139.12 49.9314 Q1139.12 41.8701 1135.64 37.1711 Q1132.15 32.4315 1126.2 32.4315 M1126.2 26.1121 Q1135.92 26.1121 1141.47 32.4315 Q1147.02 38.7509 1147.02 49.9314 Q1147.02 61.0714 1141.47 67.4314 Q1135.92 73.7508 1126.2 73.7508 Q1116.43 73.7508 1110.88 67.4314 Q1105.38 61.0714 1105.38 49.9314 Q1105.38 38.7509 1110.88 32.4315 Q1116.43 26.1121 1126.2 26.1121 Z" fill="#000000" fill-rule="nonzero" fill-opacity="1" /><path clip-path="url(#clip390)" d="M1185.66 34.1734 Q1184.41 33.4443 1182.91 33.1202 Q1181.45 32.7556 1179.67 32.7556 Q1173.35 32.7556 1169.95 36.8875 Q1166.58 40.9789 1166.58 48.6757 L1166.58 72.576 L1159.09 72.576 L1159.09 27.2059 L1166.58 27.2059 L1166.58 34.2544 Q1168.93 30.1225 1172.7 28.1376 Q1176.47 26.1121 1181.86 26.1121 Q1182.63 26.1121 1183.56 26.2337 Q1184.49 26.3147 1185.62 26.5172 L1185.66 34.1734 Z" fill="#000000" fill-rule="nonzero" fill-opacity="1" /><path clip-path="url(#clip390)" d="M1261.42 63.9476 L1261.42 47.7034 L1248.05 47.7034 L1248.05 40.9789 L1269.52 40.9789 L1269.52 66.9452 Q1264.78 70.3075 1259.07 72.0494 Q1253.35 73.7508 1246.87 73.7508 Q1232.7 73.7508 1224.67 65.4869 Q1216.69 57.1826 1216.69 42.3968 Q1216.69 27.5705 1224.67 19.3066 Q1232.7 11.0023 1246.87 11.0023 Q1252.79 11.0023 1258.09 12.4606 Q1263.44 13.9189 1267.94 16.7545 L1267.94 25.464 Q1263.4 21.6156 1258.3 19.6712 Q1253.19 17.7268 1247.56 17.7268 Q1236.46 17.7268 1230.87 23.9246 Q1225.32 30.1225 1225.32 42.3968 Q1225.32 54.6305 1230.87 60.8284 Q1236.46 67.0263 1247.56 67.0263 Q1251.9 67.0263 1255.3 66.2971 Q1258.7 65.5274 1261.42 63.9476 Z" fill="#000000" fill-rule="nonzero" fill-opacity="1" /><path clip-path="url(#clip390)" d="M1284.47 12.096 L1292.65 12.096 L1292.65 65.6895 L1322.1 65.6895 L1322.1 72.576 L1284.47 72.576 L1284.47 12.096 Z" fill="#000000" fill-rule="nonzero" fill-opacity="1" /><path clip-path="url(#clip390)" d="M1330.69 12.096 L1342.88 12.096 L1358.31 53.2532 L1373.83 12.096 L1386.02 12.096 L1386.02 72.576 L1378.04 72.576 L1378.04 19.4686 L1362.45 60.9499 L1354.22 60.9499 L1338.63 19.4686 L1338.63 72.576 L1330.69 72.576 L1330.69 12.096 Z" fill="#000000" fill-rule="nonzero" fill-opacity="1" /><path clip-path="url(#clip390)" d="M1403 62.2867 L1411.54 62.2867 L1411.54 72.576 L1403 72.576 L1403 62.2867 Z" fill="#000000" fill-rule="nonzero" fill-opacity="1" /><path clip-path="url(#clip390)" d="M1428.31 27.2059 L1435.77 27.2059 L1435.77 73.3862 Q1435.77 82.0551 1432.45 85.944 Q1429.16 89.8329 1421.83 89.8329 L1419 89.8329 L1419 83.5134 L1420.98 83.5134 Q1425.23 83.5134 1426.77 81.5285 Q1428.31 79.5841 1428.31 73.3862 L1428.31 27.2059 M1428.31 9.54393 L1435.77 9.54393 L1435.77 18.9825 L1428.31 18.9825 L1428.31 9.54393 Z" fill="#000000" fill-rule="nonzero" fill-opacity="1" /><path clip-path="url(#clip390)" d="M1451.36 9.54393 L1458.82 9.54393 L1458.82 72.576 L1451.36 72.576 L1451.36 9.54393 Z" fill="#000000" fill-rule="nonzero" fill-opacity="1" /><path clip-path="url(#clip390)" d="M1497.46 50.8226 Q1497.46 56.6154 1500.34 59.9372 Q1503.21 63.2184 1508.24 63.2184 Q1513.22 63.2184 1516.06 59.8967 Q1518.93 56.5749 1518.93 50.8226 Q1518.93 45.1514 1516.02 41.8296 Q1513.1 38.4674 1508.16 38.4674 Q1503.26 38.4674 1500.34 41.7891 Q1497.46 45.1109 1497.46 50.8226 M1519.54 62.9348 Q1517.11 66.054 1513.95 67.5529 Q1510.83 69.0112 1506.66 69.0112 Q1499.69 69.0112 1495.32 63.9881 Q1490.98 58.9245 1490.98 50.8226 Q1490.98 42.7208 1495.36 37.6572 Q1499.73 32.5936 1506.66 32.5936 Q1510.83 32.5936 1513.99 34.1329 Q1517.15 35.6318 1519.54 38.7104 L1519.54 33.4038 L1525.33 33.4038 L1525.33 63.2184 Q1531.25 62.3272 1534.57 57.8307 Q1537.93 53.2937 1537.93 46.1236 Q1537.93 41.7891 1536.63 37.9813 Q1535.38 34.1734 1532.79 30.9327 Q1528.57 25.626 1522.5 22.8309 Q1516.46 19.9953 1509.33 19.9953 Q1504.35 19.9953 1499.77 21.3321 Q1495.19 22.6284 1491.3 25.2209 Q1484.94 29.3529 1481.34 36.0774 Q1477.77 42.7613 1477.77 50.5796 Q1477.77 57.0205 1480.08 62.6513 Q1482.43 68.282 1486.85 72.576 Q1491.1 76.7889 1496.69 78.9764 Q1502.28 81.2044 1508.64 81.2044 Q1513.87 81.2044 1518.89 79.422 Q1523.96 77.6801 1528.17 74.3989 L1531.81 78.8954 Q1526.75 82.8248 1520.75 84.8907 Q1514.8 86.9972 1508.64 86.9972 Q1501.15 86.9972 1494.51 84.3236 Q1487.86 81.6905 1482.68 76.6269 Q1477.49 71.5633 1474.78 64.9198 Q1472.06 58.2358 1472.06 50.5796 Q1472.06 43.2069 1474.82 36.523 Q1477.57 29.839 1482.68 24.7753 Q1487.9 19.6307 1494.75 16.9166 Q1501.59 14.162 1509.25 14.162 Q1517.84 14.162 1525.17 17.6862 Q1532.54 21.2105 1537.53 27.692 Q1540.56 31.6619 1542.14 36.3204 Q1543.76 40.9789 1543.76 45.9616 Q1543.76 56.6154 1537.32 62.7728 Q1530.88 68.9302 1519.54 69.1732 L1519.54 62.9348 Z" fill="#000000" fill-rule="nonzero" fill-opacity="1" /><path clip-path="url(#clip390)" d="M1552.03 27.2059 L1559.93 27.2059 L1574.11 65.2844 L1588.28 27.2059 L1596.18 27.2059 L1579.17 72.576 L1569.04 72.576 L1552.03 27.2059 Z" fill="#000000" fill-rule="nonzero" fill-opacity="1" /><path clip-path="url(#clip390)" d="M1608.94 65.6895 L1622.31 65.6895 L1622.31 19.5497 L1607.77 22.4663 L1607.77 15.0127 L1622.23 12.096 L1630.41 12.096 L1630.41 65.6895 L1643.78 65.6895 L1643.78 72.576 L1608.94 72.576 L1608.94 65.6895 Z" fill="#000000" fill-rule="nonzero" fill-opacity="1" /><path clip-path="url(#clip390)" d="M1660.31 62.2867 L1668.86 62.2867 L1668.86 72.576 L1660.31 72.576 L1660.31 62.2867 Z" fill="#000000" fill-rule="nonzero" fill-opacity="1" /><path clip-path="url(#clip390)" d="M1705.19 39.075 Q1699.68 39.075 1696.44 42.8424 Q1693.24 46.6097 1693.24 53.1722 Q1693.24 59.6941 1696.44 63.502 Q1699.68 67.2693 1705.19 67.2693 Q1710.7 67.2693 1713.9 63.502 Q1717.14 59.6941 1717.14 53.1722 Q1717.14 46.6097 1713.9 42.8424 Q1710.7 39.075 1705.19 39.075 M1721.44 13.4328 L1721.44 20.8865 Q1718.36 19.4281 1715.2 18.6585 Q1712.08 17.8888 1709 17.8888 Q1700.9 17.8888 1696.6 23.3575 Q1692.35 28.8262 1691.74 39.8852 Q1694.13 36.3609 1697.74 34.4975 Q1701.34 32.5936 1705.68 32.5936 Q1714.79 32.5936 1720.06 38.1433 Q1725.37 43.6525 1725.37 53.1722 Q1725.37 62.4892 1719.86 68.12 Q1714.35 73.7508 1705.19 73.7508 Q1694.7 73.7508 1689.15 65.73 Q1683.6 57.6687 1683.6 42.3968 Q1683.6 28.0566 1690.41 19.5497 Q1697.21 11.0023 1708.68 11.0023 Q1711.76 11.0023 1714.87 11.6099 Q1718.03 12.2175 1721.44 13.4328 Z" fill="#000000" fill-rule="nonzero" fill-opacity="1" /><path clip-path="url(#clip390)" d="M1739.46 62.2867 L1748.01 62.2867 L1748.01 72.576 L1739.46 72.576 L1739.46 62.2867 Z" fill="#000000" fill-rule="nonzero" fill-opacity="1" /><path clip-path="url(#clip390)" d="M1772.88 65.6895 L1801.44 65.6895 L1801.44 72.576 L1763.04 72.576 L1763.04 65.6895 Q1767.7 60.8689 1775.72 52.7671 Q1783.78 44.6248 1785.85 42.2752 Q1789.78 37.8598 1791.31 34.8216 Q1792.89 31.7429 1792.89 28.7857 Q1792.89 23.9651 1789.49 20.927 Q1786.13 17.8888 1780.7 17.8888 Q1776.85 17.8888 1772.56 19.2256 Q1768.31 20.5624 1763.44 23.2765 L1763.44 15.0127 Q1768.39 13.0277 1772.68 12.015 Q1776.97 11.0023 1780.54 11.0023 Q1789.94 11.0023 1795.53 15.7013 Q1801.12 20.4004 1801.12 28.2591 Q1801.12 31.9859 1799.7 35.3482 Q1798.32 38.6699 1794.64 43.2069 Q1793.62 44.3817 1788.2 50.0125 Q1782.77 55.6027 1772.88 65.6895 Z" fill="#000000" fill-rule="nonzero" fill-opacity="1" /><path clip-path="url(#clip392)" d="M1273.33 804.994 L1916.28 804.994 L1911.57 727.241 L1897.48 650.63 L1874.23 576.284 L1842.16 505.295 L1801.75 438.705 L1753.57 377.492 L1698.35 322.553 L1636.89 274.696 L1570.09 234.622 L1498.94 202.921 L1424.47 180.056 L1347.79 166.365 L1270.01 162.047 L1192.29 167.166 L1115.75 181.648 L1041.52 205.279 L970.702 237.712 L904.321 278.472 L843.357 326.961 L788.704 382.466 L741.164 444.172 L701.435 511.175 L670.1 582.491 L647.62 657.073 L634.324 733.825 L630.407 811.623 L635.927 889.323 L650.803 965.785 L674.816 1039.89 L707.614 1110.54 L748.716 1176.71 L797.518 1237.42 L853.304 1291.79 L915.255 1339.01 L982.462 1378.4 L1053.94 1409.36 L1128.63 1431.46 L1205.45 1444.36 L1283.27 1447.87 L1360.94 1441.95 L1437.33 1426.68 L1511.3 1402.29 L1581.79 1369.13 L1647.75 1327.68 L1708.21 1278.57 L1762.28 1222.5 L1809.19 1160.31 L1848.22 1092.9 L1878.82 1021.27 L1273.33 804.994  Z" fill="#009af9" fill-rule="evenodd" fill-opacity="1"/>
<polyline clip-path="url(#clip392)" style="stroke:#000000; stroke-linecap:round; stroke-linejoin:round; stroke-width:4; stroke-opacity:0.5; fill:none" points="1273.33,804.994 1916.28,804.994 1911.57,727.241 1897.48,650.63 1874.23,576.284 1842.16,505.295 1801.75,438.705 1753.57,377.492 1698.35,322.553 1636.89,274.696 1570.09,234.622 1498.94,202.921 1424.47,180.056 1347.79,166.365 1270.01,162.047 1192.29,167.166 1115.75,181.648 1041.52,205.279 970.702,237.712 904.321,278.472 843.357,326.961 788.704,382.466 741.164,444.172 701.435,511.175 670.1,582.491 647.62,657.073 634.324,733.825 630.407,811.623 635.927,889.323 650.803,965.785 674.816,1039.89 707.614,1110.54 748.716,1176.71 797.518,1237.42 853.304,1291.79 915.255,1339.01 982.462,1378.4 1053.94,1409.36 1128.63,1431.46 1205.45,1444.36 1283.27,1447.87 1360.94,1441.95 1437.33,1426.68 1511.3,1402.29 1581.79,1369.13 1647.75,1327.68 1708.21,1278.57 1762.28,1222.5 1809.19,1160.31 1848.22,1092.9 1878.82,1021.27 1273.33,804.994 "/>
<path clip-path="url(#clip392)" d="M1273.33 804.994 L1878.82 1021.27 L1880.32 1017.02 L1881.79 1012.77 L1883.23 1008.5 L1884.64 1004.23 L1886.02 999.942 L1887.37 995.648 L1888.69 991.344 L1889.98 987.032 L1891.24 982.71 L1892.47 978.379 L1893.66 974.04 L1894.83 969.693 L1895.97 965.338 L1897.08 960.975 L1898.15 956.604 L1899.2 952.226 L1900.22 947.84 L1901.2 943.448 L1902.15 939.049 L1903.08 934.643 L1903.97 930.231 L1904.83 925.812 L1905.66 921.388 L1906.46 916.958 L1907.23 912.523 L1907.97 908.082 L1908.67 903.636 L1909.35 899.186 L1909.99 894.73 L1910.6 890.271 L1911.19 885.807 L1911.74 881.339 L1912.25 876.868 L1912.74 872.393 L1913.2 867.914 L1913.62 863.433 L1914.02 858.949 L1914.38 854.462 L1914.71 849.972 L1915.01 845.481 L1915.28 840.987 L1915.51 836.492 L1915.72 831.995 L1915.89 827.497 L1916.03 822.998 L1916.14 818.498 L1916.22 813.997 L1916.27 809.496 L1916.28 804.994 L1273.33 804.994  Z" fill="#e26f46" fill-rule="evenodd" fill-opacity="1"/>
<polyline clip-path="url(#clip392)" style="stroke:#000000; stroke-linecap:round; stroke-linejoin:round; stroke-width:4; stroke-opacity:0.5; fill:none" points="1273.33,804.994 1878.82,1021.27 1880.32,1017.02 1881.79,1012.77 1883.23,1008.5 1884.64,1004.23 1886.02,999.942 1887.37,995.648 1888.69,991.344 1889.98,987.032 1891.24,982.71 1892.47,978.379 1893.66,974.04 1894.83,969.693 1895.97,965.338 1897.08,960.975 1898.15,956.604 1899.2,952.226 1900.22,947.84 1901.2,943.448 1902.15,939.049 1903.08,934.643 1903.97,930.231 1904.83,925.812 1905.66,921.388 1906.46,916.958 1907.23,912.523 1907.97,908.082 1908.67,903.636 1909.35,899.186 1909.99,894.73 1910.6,890.271 1911.19,885.807 1911.74,881.339 1912.25,876.868 1912.74,872.393 1913.2,867.914 1913.62,863.433 1914.02,858.949 1914.38,854.462 1914.71,849.972 1915.01,845.481 1915.28,840.987 1915.51,836.492 1915.72,831.995 1915.89,827.497 1916.03,822.998 1916.14,818.498 1916.22,813.997 1916.27,809.496 1916.28,804.994 1273.33,804.994 "/>
<path clip-path="url(#clip390)" d="M842.304 324.425 L2280.8 324.425 L2280.8 168.905 L842.304 168.905  Z" fill="#ffffff" fill-rule="evenodd" fill-opacity="1"/>
<polyline clip-path="url(#clip390)" style="stroke:#000000; stroke-linecap:round; stroke-linejoin:round; stroke-width:4; stroke-opacity:1; fill:none" points="842.304,324.425 2280.8,324.425 2280.8,168.905 842.304,168.905 842.304,324.425 "/>
<path clip-path="url(#clip390)" d="M866.291 241.481 L1010.21 241.481 L1010.21 200.009 L866.291 200.009 L866.291 241.481  Z" fill="#009af9" fill-rule="evenodd" fill-opacity="1"/>
<polyline clip-path="url(#clip390)" style="stroke:#000000; stroke-linecap:round; stroke-linejoin:round; stroke-width:4; stroke-opacity:1; fill:none" points="866.291,241.481 1010.21,241.481 1010.21,200.009 866.291,200.009 866.291,241.481 "/>
<path clip-path="url(#clip390)" d="M1046.24 203.465 L1050.17 203.465 L1038.13 242.423 L1034.2 242.423 L1046.24 203.465 Z" fill="#000000" fill-rule="nonzero" fill-opacity="1" /><path clip-path="url(#clip390)" d="M1076.19 222.377 L1076.19 238.025 L1071.93 238.025 L1071.93 222.515 Q1071.93 218.835 1070.5 217.006 Q1069.06 215.178 1066.19 215.178 Q1062.74 215.178 1060.75 217.377 Q1058.76 219.576 1058.76 223.372 L1058.76 238.025 L1054.48 238.025 L1054.48 202.006 L1058.76 202.006 L1058.76 216.127 Q1060.29 213.789 1062.35 212.631 Q1064.43 211.474 1067.14 211.474 Q1071.61 211.474 1073.9 214.252 Q1076.19 217.006 1076.19 222.377 Z" fill="#000000" fill-rule="nonzero" fill-opacity="1" /><path clip-path="url(#clip390)" d="M1094.73 215.085 Q1091.31 215.085 1089.31 217.77 Q1087.32 220.432 1087.32 225.085 Q1087.32 229.738 1089.29 232.423 Q1091.28 235.085 1094.73 235.085 Q1098.13 235.085 1100.12 232.4 Q1102.12 229.715 1102.12 225.085 Q1102.12 220.478 1100.12 217.793 Q1098.13 215.085 1094.73 215.085 M1094.73 211.474 Q1100.29 211.474 1103.46 215.085 Q1106.63 218.696 1106.63 225.085 Q1106.63 231.451 1103.46 235.085 Q1100.29 238.696 1094.73 238.696 Q1089.15 238.696 1085.98 235.085 Q1082.83 231.451 1082.83 225.085 Q1082.83 218.696 1085.98 215.085 Q1089.15 211.474 1094.73 211.474 Z" fill="#000000" fill-rule="nonzero" fill-opacity="1" /><path clip-path="url(#clip390)" d="M1133.87 217.076 Q1135.47 214.205 1137.69 212.84 Q1139.92 211.474 1142.93 211.474 Q1146.98 211.474 1149.18 214.321 Q1151.37 217.145 1151.37 222.377 L1151.37 238.025 L1147.09 238.025 L1147.09 222.515 Q1147.09 218.789 1145.77 216.983 Q1144.45 215.178 1141.74 215.178 Q1138.43 215.178 1136.51 217.377 Q1134.59 219.576 1134.59 223.372 L1134.59 238.025 L1130.31 238.025 L1130.31 222.515 Q1130.31 218.765 1128.99 216.983 Q1127.67 215.178 1124.92 215.178 Q1121.65 215.178 1119.73 217.4 Q1117.81 219.599 1117.81 223.372 L1117.81 238.025 L1113.53 238.025 L1113.53 212.099 L1117.81 212.099 L1117.81 216.127 Q1119.27 213.742 1121.31 212.608 Q1123.34 211.474 1126.14 211.474 Q1128.97 211.474 1130.93 212.909 Q1132.93 214.344 1133.87 217.076 Z" fill="#000000" fill-rule="nonzero" fill-opacity="1" /><path clip-path="url(#clip390)" d="M1182.05 223.997 L1182.05 226.08 L1162.46 226.08 Q1162.74 230.478 1165.1 232.793 Q1167.49 235.085 1171.72 235.085 Q1174.18 235.085 1176.47 234.483 Q1178.78 233.881 1181.05 232.677 L1181.05 236.705 Q1178.76 237.677 1176.35 238.187 Q1173.94 238.696 1171.47 238.696 Q1165.26 238.696 1161.63 235.085 Q1158.02 231.474 1158.02 225.316 Q1158.02 218.951 1161.44 215.224 Q1164.89 211.474 1170.73 211.474 Q1175.96 211.474 1178.99 214.853 Q1182.05 218.21 1182.05 223.997 M1177.79 222.747 Q1177.74 219.252 1175.82 217.168 Q1173.92 215.085 1170.77 215.085 Q1167.21 215.085 1165.05 217.099 Q1162.93 219.113 1162.6 222.77 L1177.79 222.747 Z" fill="#000000" fill-rule="nonzero" fill-opacity="1" /><path clip-path="url(#clip390)" d="M1196.61 203.465 L1200.54 203.465 L1188.5 242.423 L1184.57 242.423 L1196.61 203.465 Z" fill="#000000" fill-rule="nonzero" fill-opacity="1" /><path clip-path="url(#clip390)" d="M1216.79 224.992 Q1211.63 224.992 1209.64 226.173 Q1207.65 227.353 1207.65 230.201 Q1207.65 232.469 1209.13 233.812 Q1210.63 235.131 1213.2 235.131 Q1216.74 235.131 1218.87 232.631 Q1221.03 230.108 1221.03 225.941 L1221.03 224.992 L1216.79 224.992 M1225.29 223.233 L1225.29 238.025 L1221.03 238.025 L1221.03 234.089 Q1219.57 236.451 1217.39 237.585 Q1215.22 238.696 1212.07 238.696 Q1208.09 238.696 1205.73 236.474 Q1203.39 234.228 1203.39 230.478 Q1203.39 226.103 1206.3 223.881 Q1209.24 221.659 1215.05 221.659 L1221.03 221.659 L1221.03 221.242 Q1221.03 218.303 1219.08 216.705 Q1217.16 215.085 1213.67 215.085 Q1211.44 215.085 1209.34 215.617 Q1207.23 216.15 1205.29 217.215 L1205.29 213.279 Q1207.62 212.377 1209.82 211.937 Q1212.02 211.474 1214.11 211.474 Q1219.73 211.474 1222.51 214.391 Q1225.29 217.307 1225.29 223.233 Z" fill="#000000" fill-rule="nonzero" fill-opacity="1" /><path clip-path="url(#clip390)" d="M1250.59 212.863 L1250.59 216.891 Q1248.78 215.965 1246.84 215.502 Q1244.89 215.039 1242.81 215.039 Q1239.64 215.039 1238.04 216.011 Q1236.47 216.983 1236.47 218.928 Q1236.47 220.409 1237.6 221.265 Q1238.74 222.099 1242.16 222.863 L1243.62 223.187 Q1248.16 224.159 1250.05 225.941 Q1251.98 227.701 1251.98 230.872 Q1251.98 234.483 1249.11 236.589 Q1246.26 238.696 1241.26 238.696 Q1239.17 238.696 1236.91 238.279 Q1234.66 237.886 1232.16 237.076 L1232.16 232.677 Q1234.52 233.904 1236.81 234.529 Q1239.11 235.131 1241.35 235.131 Q1244.36 235.131 1245.98 234.113 Q1247.6 233.071 1247.6 231.196 Q1247.6 229.46 1246.42 228.534 Q1245.26 227.608 1241.3 226.752 L1239.82 226.404 Q1235.86 225.571 1234.11 223.858 Q1232.35 222.122 1232.35 219.113 Q1232.35 215.455 1234.94 213.465 Q1237.53 211.474 1242.3 211.474 Q1244.66 211.474 1246.74 211.821 Q1248.83 212.168 1250.59 212.863 Z" fill="#000000" fill-rule="nonzero" fill-opacity="1" /><path clip-path="url(#clip390)" d="M1280.31 222.377 L1280.31 238.025 L1276.05 238.025 L1276.05 222.515 Q1276.05 218.835 1274.61 217.006 Q1273.18 215.178 1270.31 215.178 Q1266.86 215.178 1264.87 217.377 Q1262.88 219.576 1262.88 223.372 L1262.88 238.025 L1258.6 238.025 L1258.6 202.006 L1262.88 202.006 L1262.88 216.127 Q1264.41 213.789 1266.47 212.631 Q1268.55 211.474 1271.26 211.474 Q1275.73 211.474 1278.02 214.252 Q1280.31 217.006 1280.31 222.377 Z" fill="#000000" fill-rule="nonzero" fill-opacity="1" /><path clip-path="url(#clip390)" d="M1285.75 212.099 L1290.26 212.099 L1298.36 233.858 L1306.47 212.099 L1310.98 212.099 L1301.26 238.025 L1295.47 238.025 L1285.75 212.099 Z" fill="#000000" fill-rule="nonzero" fill-opacity="1" /><path clip-path="url(#clip390)" d="M1316.86 212.099 L1321.12 212.099 L1321.12 238.025 L1316.86 238.025 L1316.86 212.099 M1316.86 202.006 L1321.12 202.006 L1321.12 207.4 L1316.86 207.4 L1316.86 202.006 Z" fill="#000000" fill-rule="nonzero" fill-opacity="1" /><path clip-path="url(#clip390)" d="M1334.24 204.738 L1334.24 212.099 L1343.02 212.099 L1343.02 215.409 L1334.24 215.409 L1334.24 229.483 Q1334.24 232.654 1335.1 233.557 Q1335.98 234.46 1338.64 234.46 L1343.02 234.46 L1343.02 238.025 L1338.64 238.025 Q1333.71 238.025 1331.84 236.196 Q1329.96 234.344 1329.96 229.483 L1329.96 215.409 L1326.84 215.409 L1326.84 212.099 L1329.96 212.099 L1329.96 204.738 L1334.24 204.738 Z" fill="#000000" fill-rule="nonzero" fill-opacity="1" /><path clip-path="url(#clip390)" d="M1370.17 222.377 L1370.17 238.025 L1365.91 238.025 L1365.91 222.515 Q1365.91 218.835 1364.48 217.006 Q1363.04 215.178 1360.17 215.178 Q1356.72 215.178 1354.73 217.377 Q1352.74 219.576 1352.74 223.372 L1352.74 238.025 L1348.46 238.025 L1348.46 202.006 L1352.74 202.006 L1352.74 216.127 Q1354.27 213.789 1356.33 212.631 Q1358.41 211.474 1361.12 211.474 Q1365.59 211.474 1367.88 214.252 Q1370.17 217.006 1370.17 222.377 Z" fill="#000000" fill-rule="nonzero" fill-opacity="1" /><path clip-path="url(#clip390)" d="M1386.23 203.465 L1390.17 203.465 L1378.13 242.423 L1374.2 242.423 L1386.23 203.465 Z" fill="#000000" fill-rule="nonzero" fill-opacity="1" /><path clip-path="url(#clip390)" d="M1399.5 207.307 L1399.5 234.182 L1405.15 234.182 Q1412.3 234.182 1415.61 230.941 Q1418.94 227.701 1418.94 220.71 Q1418.94 213.766 1415.61 210.548 Q1412.3 207.307 1405.15 207.307 L1399.5 207.307 M1394.82 203.465 L1404.43 203.465 Q1414.47 203.465 1419.17 207.654 Q1423.87 211.821 1423.87 220.71 Q1423.87 229.645 1419.15 233.835 Q1414.43 238.025 1404.43 238.025 L1394.82 238.025 L1394.82 203.465 Z" fill="#000000" fill-rule="nonzero" fill-opacity="1" /><path clip-path="url(#clip390)" d="M1453.32 223.997 L1453.32 226.08 L1433.73 226.08 Q1434.01 230.478 1436.37 232.793 Q1438.76 235.085 1442.99 235.085 Q1445.45 235.085 1447.74 234.483 Q1450.05 233.881 1452.32 232.677 L1452.32 236.705 Q1450.03 237.677 1447.62 238.187 Q1445.22 238.696 1442.74 238.696 Q1436.53 238.696 1432.9 235.085 Q1429.29 231.474 1429.29 225.316 Q1429.29 218.951 1432.72 215.224 Q1436.16 211.474 1442 211.474 Q1447.23 211.474 1450.26 214.853 Q1453.32 218.21 1453.32 223.997 M1449.06 222.747 Q1449.01 219.252 1447.09 217.168 Q1445.19 215.085 1442.04 215.085 Q1438.48 215.085 1436.33 217.099 Q1434.2 219.113 1433.87 222.77 L1449.06 222.747 Z" fill="#000000" fill-rule="nonzero" fill-opacity="1" /><path clip-path="url(#clip390)" d="M1476.84 212.863 L1476.84 216.891 Q1475.03 215.965 1473.09 215.502 Q1471.14 215.039 1469.06 215.039 Q1465.89 215.039 1464.29 216.011 Q1462.72 216.983 1462.72 218.928 Q1462.72 220.409 1463.85 221.265 Q1464.98 222.099 1468.41 222.863 L1469.87 223.187 Q1474.41 224.159 1476.3 225.941 Q1478.22 227.701 1478.22 230.872 Q1478.22 234.483 1475.35 236.589 Q1472.51 238.696 1467.51 238.696 Q1465.42 238.696 1463.16 238.279 Q1460.91 237.886 1458.41 237.076 L1458.41 232.677 Q1460.77 233.904 1463.06 234.529 Q1465.35 235.131 1467.6 235.131 Q1470.61 235.131 1472.23 234.113 Q1473.85 233.071 1473.85 231.196 Q1473.85 229.46 1472.67 228.534 Q1471.51 227.608 1467.55 226.752 L1466.07 226.404 Q1462.11 225.571 1460.35 223.858 Q1458.6 222.122 1458.6 219.113 Q1458.6 215.455 1461.19 213.465 Q1463.78 211.474 1468.55 211.474 Q1470.91 211.474 1472.99 211.821 Q1475.08 212.168 1476.84 212.863 Z" fill="#000000" fill-rule="nonzero" fill-opacity="1" /><path clip-path="url(#clip390)" d="M1484.84 202.006 L1489.13 202.006 L1489.13 223.279 L1501.84 212.099 L1507.28 212.099 L1493.53 224.228 L1507.85 238.025 L1502.3 238.025 L1489.13 225.363 L1489.13 238.025 L1484.84 238.025 L1484.84 202.006 Z" fill="#000000" fill-rule="nonzero" fill-opacity="1" /><path clip-path="url(#clip390)" d="M1516.67 204.738 L1516.67 212.099 L1525.45 212.099 L1525.45 215.409 L1516.67 215.409 L1516.67 229.483 Q1516.67 232.654 1517.53 233.557 Q1518.41 234.46 1521.07 234.46 L1525.45 234.46 L1525.45 238.025 L1521.07 238.025 Q1516.14 238.025 1514.27 236.196 Q1512.39 234.344 1512.39 229.483 L1512.39 215.409 L1509.27 215.409 L1509.27 212.099 L1512.39 212.099 L1512.39 204.738 L1516.67 204.738 Z" fill="#000000" fill-rule="nonzero" fill-opacity="1" /><path clip-path="url(#clip390)" d="M1541.09 215.085 Q1537.67 215.085 1535.68 217.77 Q1533.69 220.432 1533.69 225.085 Q1533.69 229.738 1535.65 232.423 Q1537.65 235.085 1541.09 235.085 Q1544.5 235.085 1546.49 232.4 Q1548.48 229.715 1548.48 225.085 Q1548.48 220.478 1546.49 217.793 Q1544.5 215.085 1541.09 215.085 M1541.09 211.474 Q1546.65 211.474 1549.82 215.085 Q1552.99 218.696 1552.99 225.085 Q1552.99 231.451 1549.82 235.085 Q1546.65 238.696 1541.09 238.696 Q1535.52 238.696 1532.34 235.085 Q1529.2 231.451 1529.2 225.085 Q1529.2 218.696 1532.34 215.085 Q1535.52 211.474 1541.09 211.474 Z" fill="#000000" fill-rule="nonzero" fill-opacity="1" /><path clip-path="url(#clip390)" d="M1564.17 234.136 L1564.17 247.886 L1559.89 247.886 L1559.89 212.099 L1564.17 212.099 L1564.17 216.034 Q1565.52 213.719 1567.55 212.608 Q1569.61 211.474 1572.46 211.474 Q1577.18 211.474 1580.12 215.224 Q1583.09 218.974 1583.09 225.085 Q1583.09 231.196 1580.12 234.946 Q1577.18 238.696 1572.46 238.696 Q1569.61 238.696 1567.55 237.585 Q1565.52 236.451 1564.17 234.136 M1578.66 225.085 Q1578.66 220.386 1576.72 217.724 Q1574.8 215.039 1571.42 215.039 Q1568.04 215.039 1566.09 217.724 Q1564.17 220.386 1564.17 225.085 Q1564.17 229.784 1566.09 232.469 Q1568.04 235.131 1571.42 235.131 Q1574.8 235.131 1576.72 232.469 Q1578.66 229.784 1578.66 225.085 Z" fill="#000000" fill-rule="nonzero" fill-opacity="1" /><path clip-path="url(#clip390)" d="M1597.71 203.465 L1601.65 203.465 L1589.61 242.423 L1585.68 242.423 L1597.71 203.465 Z" fill="#000000" fill-rule="nonzero" fill-opacity="1" /><path clip-path="url(#clip390)" d="M1629.87 233.094 L1629.87 223.812 L1622.23 223.812 L1622.23 219.969 L1634.5 219.969 L1634.5 234.807 Q1631.79 236.728 1628.52 237.724 Q1625.26 238.696 1621.56 238.696 Q1613.46 238.696 1608.87 233.974 Q1604.31 229.228 1604.31 220.779 Q1604.31 212.307 1608.87 207.585 Q1613.46 202.84 1621.56 202.84 Q1624.94 202.84 1627.97 203.673 Q1631.02 204.506 1633.59 206.127 L1633.59 211.103 Q1631 208.904 1628.08 207.793 Q1625.17 206.682 1621.95 206.682 Q1615.61 206.682 1612.41 210.224 Q1609.24 213.766 1609.24 220.779 Q1609.24 227.77 1612.41 231.312 Q1615.61 234.853 1621.95 234.853 Q1624.43 234.853 1626.37 234.437 Q1628.32 233.997 1629.87 233.094 Z" fill="#000000" fill-rule="nonzero" fill-opacity="1" /><path clip-path="url(#clip390)" d="M1643.04 203.465 L1647.71 203.465 L1647.71 234.089 L1664.54 234.089 L1664.54 238.025 L1643.04 238.025 L1643.04 203.465 Z" fill="#000000" fill-rule="nonzero" fill-opacity="1" /><path clip-path="url(#clip390)" d="M1669.45 203.465 L1676.42 203.465 L1685.24 226.983 L1694.1 203.465 L1701.07 203.465 L1701.07 238.025 L1696.51 238.025 L1696.51 207.678 L1687.6 231.381 L1682.9 231.381 L1673.99 207.678 L1673.99 238.025 L1669.45 238.025 L1669.45 203.465 Z" fill="#000000" fill-rule="nonzero" fill-opacity="1" /><path clip-path="url(#clip390)" d="M1710.77 232.145 L1715.65 232.145 L1715.65 238.025 L1710.77 238.025 L1710.77 232.145 Z" fill="#000000" fill-rule="nonzero" fill-opacity="1" /><path clip-path="url(#clip390)" d="M1725.24 212.099 L1729.5 212.099 L1729.5 238.488 Q1729.5 243.441 1727.6 245.663 Q1725.72 247.886 1721.53 247.886 L1719.91 247.886 L1719.91 244.275 L1721.05 244.275 Q1723.48 244.275 1724.36 243.14 Q1725.24 242.029 1725.24 238.488 L1725.24 212.099 M1725.24 202.006 L1729.5 202.006 L1729.5 207.4 L1725.24 207.4 L1725.24 202.006 Z" fill="#000000" fill-rule="nonzero" fill-opacity="1" /><path clip-path="url(#clip390)" d="M1738.41 202.006 L1742.67 202.006 L1742.67 238.025 L1738.41 238.025 L1738.41 202.006 Z" fill="#000000" fill-rule="nonzero" fill-opacity="1" /><path clip-path="url(#clip390)" d="M1759.15 203.465 L1763.08 203.465 L1751.05 242.423 L1747.11 242.423 L1759.15 203.465 Z" fill="#000000" fill-rule="nonzero" fill-opacity="1" /><path clip-path="url(#clip390)" d="M1784.08 212.863 L1784.08 216.891 Q1782.27 215.965 1780.33 215.502 Q1778.38 215.039 1776.3 215.039 Q1773.13 215.039 1771.53 216.011 Q1769.96 216.983 1769.96 218.928 Q1769.96 220.409 1771.09 221.265 Q1772.23 222.099 1775.65 222.863 L1777.11 223.187 Q1781.65 224.159 1783.55 225.941 Q1785.47 227.701 1785.47 230.872 Q1785.47 234.483 1782.6 236.589 Q1779.75 238.696 1774.75 238.696 Q1772.67 238.696 1770.4 238.279 Q1768.15 237.886 1765.65 237.076 L1765.65 232.677 Q1768.01 233.904 1770.31 234.529 Q1772.6 235.131 1774.84 235.131 Q1777.85 235.131 1779.47 234.113 Q1781.09 233.071 1781.09 231.196 Q1781.09 229.46 1779.91 228.534 Q1778.76 227.608 1774.8 226.752 L1773.32 226.404 Q1769.36 225.571 1767.6 223.858 Q1765.84 222.122 1765.84 219.113 Q1765.84 215.455 1768.43 213.465 Q1771.02 211.474 1775.79 211.474 Q1778.15 211.474 1780.24 211.821 Q1782.32 212.168 1784.08 212.863 Z" fill="#000000" fill-rule="nonzero" fill-opacity="1" /><path clip-path="url(#clip390)" d="M1807.27 216.08 Q1806.56 215.664 1805.7 215.478 Q1804.87 215.27 1803.85 215.27 Q1800.24 215.27 1798.29 217.631 Q1796.37 219.969 1796.37 224.367 L1796.37 238.025 L1792.09 238.025 L1792.09 212.099 L1796.37 212.099 L1796.37 216.127 Q1797.71 213.766 1799.87 212.631 Q1802.02 211.474 1805.1 211.474 Q1805.54 211.474 1806.07 211.543 Q1806.6 211.59 1807.25 211.705 L1807.27 216.08 Z" fill="#000000" fill-rule="nonzero" fill-opacity="1" /><path clip-path="url(#clip390)" d="M1829.36 213.094 L1829.36 217.076 Q1827.55 216.08 1825.72 215.594 Q1823.92 215.085 1822.07 215.085 Q1817.92 215.085 1815.63 217.724 Q1813.34 220.34 1813.34 225.085 Q1813.34 229.83 1815.63 232.469 Q1817.92 235.085 1822.07 235.085 Q1823.92 235.085 1825.72 234.599 Q1827.55 234.089 1829.36 233.094 L1829.36 237.029 Q1827.57 237.863 1825.65 238.279 Q1823.76 238.696 1821.6 238.696 Q1815.75 238.696 1812.3 235.015 Q1808.85 231.335 1808.85 225.085 Q1808.85 218.742 1812.32 215.108 Q1815.82 211.474 1821.88 211.474 Q1823.85 211.474 1825.72 211.891 Q1827.6 212.284 1829.36 213.094 Z" fill="#000000" fill-rule="nonzero" fill-opacity="1" /><path clip-path="url(#clip390)" d="M1844.33 203.465 L1848.27 203.465 L1836.23 242.423 L1832.3 242.423 L1844.33 203.465 Z" fill="#000000" fill-rule="nonzero" fill-opacity="1" /><path clip-path="url(#clip390)" d="M1852.74 202.006 L1857 202.006 L1857 238.025 L1852.74 238.025 L1852.74 202.006 Z" fill="#000000" fill-rule="nonzero" fill-opacity="1" /><path clip-path="url(#clip390)" d="M1865.91 212.099 L1870.17 212.099 L1870.17 238.025 L1865.91 238.025 L1865.91 212.099 M1865.91 202.006 L1870.17 202.006 L1870.17 207.4 L1865.91 207.4 L1865.91 202.006 Z" fill="#000000" fill-rule="nonzero" fill-opacity="1" /><path clip-path="url(#clip390)" d="M1900.63 222.377 L1900.63 238.025 L1896.37 238.025 L1896.37 222.515 Q1896.37 218.835 1894.94 217.006 Q1893.5 215.178 1890.63 215.178 Q1887.18 215.178 1885.19 217.377 Q1883.2 219.576 1883.2 223.372 L1883.2 238.025 L1878.92 238.025 L1878.92 212.099 L1883.2 212.099 L1883.2 216.127 Q1884.73 213.789 1886.79 212.631 Q1888.87 211.474 1891.58 211.474 Q1896.05 211.474 1898.34 214.252 Q1900.63 217.006 1900.63 222.377 Z" fill="#000000" fill-rule="nonzero" fill-opacity="1" /><path clip-path="url(#clip390)" d="M1913.25 234.136 L1913.25 247.886 L1908.96 247.886 L1908.96 212.099 L1913.25 212.099 L1913.25 216.034 Q1914.59 213.719 1916.62 212.608 Q1918.69 211.474 1921.53 211.474 Q1926.25 211.474 1929.19 215.224 Q1932.16 218.974 1932.16 225.085 Q1932.16 231.196 1929.19 234.946 Q1926.25 238.696 1921.53 238.696 Q1918.69 238.696 1916.62 237.585 Q1914.59 236.451 1913.25 234.136 M1927.74 225.085 Q1927.74 220.386 1925.79 217.724 Q1923.87 215.039 1920.49 215.039 Q1917.11 215.039 1915.17 217.724 Q1913.25 220.386 1913.25 225.085 Q1913.25 229.784 1915.17 232.469 Q1917.11 235.131 1920.49 235.131 Q1923.87 235.131 1925.79 232.469 Q1927.74 229.784 1927.74 225.085 Z" fill="#000000" fill-rule="nonzero" fill-opacity="1" /><path clip-path="url(#clip390)" d="M1954.24 216.08 Q1953.52 215.664 1952.67 215.478 Q1951.83 215.27 1950.81 215.27 Q1947.2 215.27 1945.26 217.631 Q1943.34 219.969 1943.34 224.367 L1943.34 238.025 L1939.06 238.025 L1939.06 212.099 L1943.34 212.099 L1943.34 216.127 Q1944.68 213.766 1946.83 212.631 Q1948.99 211.474 1952.06 211.474 Q1952.5 211.474 1953.04 211.543 Q1953.57 211.59 1954.22 211.705 L1954.24 216.08 Z" fill="#000000" fill-rule="nonzero" fill-opacity="1" /><path clip-path="url(#clip390)" d="M1979.84 223.997 L1979.84 226.08 L1960.26 226.08 Q1960.54 230.478 1962.9 232.793 Q1965.28 235.085 1969.52 235.085 Q1971.97 235.085 1974.26 234.483 Q1976.58 233.881 1978.85 232.677 L1978.85 236.705 Q1976.56 237.677 1974.15 238.187 Q1971.74 238.696 1969.26 238.696 Q1963.06 238.696 1959.43 235.085 Q1955.81 231.474 1955.81 225.316 Q1955.81 218.951 1959.24 215.224 Q1962.69 211.474 1968.52 211.474 Q1973.75 211.474 1976.79 214.853 Q1979.84 218.21 1979.84 223.997 M1975.58 222.747 Q1975.54 219.252 1973.62 217.168 Q1971.72 215.085 1968.57 215.085 Q1965 215.085 1962.85 217.099 Q1960.72 219.113 1960.4 222.77 L1975.58 222.747 Z" fill="#000000" fill-rule="nonzero" fill-opacity="1" /><path clip-path="url(#clip390)" d="M2003.89 216.034 L2003.89 202.006 L2008.15 202.006 L2008.15 238.025 L2003.89 238.025 L2003.89 234.136 Q2002.55 236.451 2000.49 237.585 Q1998.45 238.696 1995.58 238.696 Q1990.88 238.696 1987.92 234.946 Q1984.98 231.196 1984.98 225.085 Q1984.98 218.974 1987.92 215.224 Q1990.88 211.474 1995.58 211.474 Q1998.45 211.474 2000.49 212.608 Q2002.55 213.719 2003.89 216.034 M1989.38 225.085 Q1989.38 229.784 1991.3 232.469 Q1993.24 235.131 1996.62 235.131 Q2000 235.131 2001.95 232.469 Q2003.89 229.784 2003.89 225.085 Q2003.89 220.386 2001.95 217.724 Q2000 215.039 1996.62 215.039 Q1993.24 215.039 1991.3 217.724 Q1989.38 220.386 1989.38 225.085 Z" fill="#000000" fill-rule="nonzero" fill-opacity="1" /><path clip-path="url(#clip390)" d="M2017.53 232.145 L2022.41 232.145 L2022.41 238.025 L2017.53 238.025 L2017.53 232.145 Z" fill="#000000" fill-rule="nonzero" fill-opacity="1" /><path clip-path="url(#clip390)" d="M2031.99 212.099 L2036.25 212.099 L2036.25 238.488 Q2036.25 243.441 2034.36 245.663 Q2032.48 247.886 2028.29 247.886 L2026.67 247.886 L2026.67 244.275 L2027.8 244.275 Q2030.24 244.275 2031.12 243.14 Q2031.99 242.029 2031.99 238.488 L2031.99 212.099 M2031.99 202.006 L2036.25 202.006 L2036.25 207.4 L2031.99 207.4 L2031.99 202.006 Z" fill="#000000" fill-rule="nonzero" fill-opacity="1" /><path clip-path="url(#clip390)" d="M2045.17 202.006 L2049.43 202.006 L2049.43 238.025 L2045.17 238.025 L2045.17 202.006 Z" fill="#000000" fill-rule="nonzero" fill-opacity="1" /><path clip-path="url(#clip390)" d="M2073.41 202.006 L2077.67 202.006 L2077.67 238.025 L2073.41 238.025 L2073.41 202.006 Z" fill="#000000" fill-rule="nonzero" fill-opacity="1" /><path clip-path="url(#clip390)" d="M2086.58 212.099 L2090.84 212.099 L2090.84 238.025 L2086.58 238.025 L2086.58 212.099 M2086.58 202.006 L2090.84 202.006 L2090.84 207.4 L2086.58 207.4 L2086.58 202.006 Z" fill="#000000" fill-rule="nonzero" fill-opacity="1" /><path clip-path="url(#clip390)" d="M2121.3 222.377 L2121.3 238.025 L2117.04 238.025 L2117.04 222.515 Q2117.04 218.835 2115.61 217.006 Q2114.17 215.178 2111.3 215.178 Q2107.85 215.178 2105.86 217.377 Q2103.87 219.576 2103.87 223.372 L2103.87 238.025 L2099.59 238.025 L2099.59 212.099 L2103.87 212.099 L2103.87 216.127 Q2105.4 213.789 2107.46 212.631 Q2109.54 211.474 2112.25 211.474 Q2116.72 211.474 2119.01 214.252 Q2121.3 217.006 2121.3 222.377 Z" fill="#000000" fill-rule="nonzero" fill-opacity="1" /><path clip-path="url(#clip390)" d="M2151.97 223.997 L2151.97 226.08 L2132.39 226.08 Q2132.67 230.478 2135.03 232.793 Q2137.41 235.085 2141.65 235.085 Q2144.1 235.085 2146.39 234.483 Q2148.71 233.881 2150.98 232.677 L2150.98 236.705 Q2148.68 237.677 2146.28 238.187 Q2143.87 238.696 2141.39 238.696 Q2135.19 238.696 2131.55 235.085 Q2127.94 231.474 2127.94 225.316 Q2127.94 218.951 2131.37 215.224 Q2134.82 211.474 2140.65 211.474 Q2145.88 211.474 2148.92 214.853 Q2151.97 218.21 2151.97 223.997 M2147.71 222.747 Q2147.67 219.252 2145.74 217.168 Q2143.85 215.085 2140.7 215.085 Q2137.13 215.085 2134.98 217.099 Q2132.85 219.113 2132.53 222.77 L2147.71 222.747 Z" fill="#000000" fill-rule="nonzero" fill-opacity="1" /><path clip-path="url(#clip390)" d="M2175.44 234.089 L2183.08 234.089 L2183.08 207.724 L2174.77 209.391 L2174.77 205.131 L2183.04 203.465 L2187.71 203.465 L2187.71 234.089 L2195.35 234.089 L2195.35 238.025 L2175.44 238.025 L2175.44 234.089 Z" fill="#000000" fill-rule="nonzero" fill-opacity="1" /><path clip-path="url(#clip390)" d="M2214.79 206.543 Q2211.18 206.543 2209.35 210.108 Q2207.55 213.65 2207.55 220.779 Q2207.55 227.886 2209.35 231.451 Q2211.18 234.992 2214.79 234.992 Q2218.43 234.992 2220.23 231.451 Q2222.06 227.886 2222.06 220.779 Q2222.06 213.65 2220.23 210.108 Q2218.43 206.543 2214.79 206.543 M2214.79 202.84 Q2220.6 202.84 2223.66 207.446 Q2226.74 212.029 2226.74 220.779 Q2226.74 229.506 2223.66 234.113 Q2220.6 238.696 2214.79 238.696 Q2208.98 238.696 2205.91 234.113 Q2202.85 229.506 2202.85 220.779 Q2202.85 212.029 2205.91 207.446 Q2208.98 202.84 2214.79 202.84 Z" fill="#000000" fill-rule="nonzero" fill-opacity="1" /><path clip-path="url(#clip390)" d="M2244.96 221.613 Q2241.62 221.613 2239.7 223.395 Q2237.8 225.177 2237.8 228.302 Q2237.8 231.427 2239.7 233.21 Q2241.62 234.992 2244.96 234.992 Q2248.29 234.992 2250.21 233.21 Q2252.13 231.404 2252.13 228.302 Q2252.13 225.177 2250.21 223.395 Q2248.31 221.613 2244.96 221.613 M2240.28 219.622 Q2237.27 218.881 2235.58 216.821 Q2233.91 214.761 2233.91 211.798 Q2233.91 207.654 2236.85 205.247 Q2239.82 202.84 2244.96 202.84 Q2250.12 202.84 2253.06 205.247 Q2256 207.654 2256 211.798 Q2256 214.761 2254.31 216.821 Q2252.64 218.881 2249.66 219.622 Q2253.04 220.409 2254.91 222.701 Q2256.81 224.992 2256.81 228.302 Q2256.81 233.326 2253.73 236.011 Q2250.67 238.696 2244.96 238.696 Q2239.24 238.696 2236.16 236.011 Q2233.1 233.326 2233.1 228.302 Q2233.1 224.992 2235 222.701 Q2236.9 220.409 2240.28 219.622 M2238.57 212.238 Q2238.57 214.923 2240.23 216.428 Q2241.92 217.932 2244.96 217.932 Q2247.97 217.932 2249.66 216.428 Q2251.37 214.923 2251.37 212.238 Q2251.37 209.553 2249.66 208.048 Q2247.97 206.543 2244.96 206.543 Q2241.92 206.543 2240.23 208.048 Q2238.57 209.553 2238.57 212.238 Z" fill="#000000" fill-rule="nonzero" fill-opacity="1" /><path clip-path="url(#clip390)" d="M866.291 293.321 L1010.21 293.321 L1010.21 251.849 L866.291 251.849 L866.291 293.321  Z" fill="#e26f46" fill-rule="evenodd" fill-opacity="1"/>
<polyline clip-path="url(#clip390)" style="stroke:#000000; stroke-linecap:round; stroke-linejoin:round; stroke-width:4; stroke-opacity:1; fill:none" points="866.291,293.321 1010.21,293.321 1010.21,251.849 866.291,251.849 866.291,293.321 "/>
<path clip-path="url(#clip390)" d="M1046.1 266.925 Q1042.67 266.925 1040.68 269.61 Q1038.69 272.272 1038.69 276.925 Q1038.69 281.578 1040.66 284.263 Q1042.65 286.925 1046.1 286.925 Q1049.5 286.925 1051.49 284.24 Q1053.48 281.555 1053.48 276.925 Q1053.48 272.318 1051.49 269.633 Q1049.5 266.925 1046.1 266.925 M1046.1 263.314 Q1051.65 263.314 1054.82 266.925 Q1058 270.536 1058 276.925 Q1058 283.291 1054.82 286.925 Q1051.65 290.536 1046.1 290.536 Q1040.52 290.536 1037.35 286.925 Q1034.2 283.291 1034.2 276.925 Q1034.2 270.536 1037.35 266.925 Q1040.52 263.314 1046.1 263.314 Z" fill="#000000" fill-rule="nonzero" fill-opacity="1" /><path clip-path="url(#clip390)" d="M1069.27 256.578 L1069.27 263.939 L1078.04 263.939 L1078.04 267.249 L1069.27 267.249 L1069.27 281.323 Q1069.27 284.494 1070.12 285.397 Q1071 286.3 1073.67 286.3 L1078.04 286.3 L1078.04 289.865 L1073.67 289.865 Q1068.74 289.865 1066.86 288.036 Q1064.99 286.184 1064.99 281.323 L1064.99 267.249 L1061.86 267.249 L1061.86 263.939 L1064.99 263.939 L1064.99 256.578 L1069.27 256.578 Z" fill="#000000" fill-rule="nonzero" fill-opacity="1" /><path clip-path="url(#clip390)" d="M1105.19 274.217 L1105.19 289.865 L1100.93 289.865 L1100.93 274.355 Q1100.93 270.675 1099.5 268.846 Q1098.06 267.018 1095.19 267.018 Q1091.75 267.018 1089.75 269.217 Q1087.76 271.416 1087.76 275.212 L1087.76 289.865 L1083.48 289.865 L1083.48 253.846 L1087.76 253.846 L1087.76 267.967 Q1089.29 265.629 1091.35 264.471 Q1093.43 263.314 1096.14 263.314 Q1100.61 263.314 1102.9 266.092 Q1105.19 268.846 1105.19 274.217 Z" fill="#000000" fill-rule="nonzero" fill-opacity="1" /><path clip-path="url(#clip390)" d="M1135.87 275.837 L1135.87 277.92 L1116.28 277.92 Q1116.56 282.318 1118.92 284.633 Q1121.31 286.925 1125.54 286.925 Q1127.99 286.925 1130.29 286.323 Q1132.6 285.721 1134.87 284.517 L1134.87 288.545 Q1132.58 289.517 1130.17 290.027 Q1127.76 290.536 1125.29 290.536 Q1119.08 290.536 1115.45 286.925 Q1111.84 283.314 1111.84 277.156 Q1111.84 270.791 1115.26 267.064 Q1118.71 263.314 1124.55 263.314 Q1129.78 263.314 1132.81 266.693 Q1135.87 270.05 1135.87 275.837 M1131.61 274.587 Q1131.56 271.092 1129.64 269.008 Q1127.74 266.925 1124.59 266.925 Q1121.03 266.925 1118.87 268.939 Q1116.75 270.953 1116.42 274.61 L1131.61 274.587 Z" fill="#000000" fill-rule="nonzero" fill-opacity="1" /><path clip-path="url(#clip390)" d="M1157.88 267.92 Q1157.16 267.504 1156.3 267.318 Q1155.47 267.11 1154.45 267.11 Q1150.84 267.11 1148.9 269.471 Q1146.98 271.809 1146.98 276.207 L1146.98 289.865 L1142.69 289.865 L1142.69 263.939 L1146.98 263.939 L1146.98 267.967 Q1148.32 265.606 1150.47 264.471 Q1152.62 263.314 1155.7 263.314 Q1156.14 263.314 1156.68 263.383 Q1157.21 263.43 1157.86 263.545 L1157.88 267.92 Z" fill="#000000" fill-rule="nonzero" fill-opacity="1" /><path clip-path="url(#clip390)" d="M1178.87 264.703 L1178.87 268.731 Q1177.07 267.805 1175.12 267.342 Q1173.18 266.879 1171.1 266.879 Q1167.93 266.879 1166.33 267.851 Q1164.75 268.823 1164.75 270.768 Q1164.75 272.249 1165.89 273.105 Q1167.02 273.939 1170.45 274.703 L1171.91 275.027 Q1176.44 275.999 1178.34 277.781 Q1180.26 279.541 1180.26 282.712 Q1180.26 286.323 1177.39 288.429 Q1174.55 290.536 1169.55 290.536 Q1167.46 290.536 1165.19 290.119 Q1162.95 289.726 1160.45 288.916 L1160.45 284.517 Q1162.81 285.744 1165.1 286.369 Q1167.39 286.971 1169.64 286.971 Q1172.65 286.971 1174.27 285.953 Q1175.89 284.911 1175.89 283.036 Q1175.89 281.3 1174.71 280.374 Q1173.55 279.448 1169.59 278.592 L1168.11 278.244 Q1164.15 277.411 1162.39 275.698 Q1160.63 273.962 1160.63 270.953 Q1160.63 267.295 1163.23 265.305 Q1165.82 263.314 1170.59 263.314 Q1172.95 263.314 1175.03 263.661 Q1177.12 264.008 1178.87 264.703 Z" fill="#000000" fill-rule="nonzero" fill-opacity="1" /><path clip-path="url(#clip390)" d="M1202.72 283.985 L1207.6 283.985 L1207.6 289.865 L1202.72 289.865 L1202.72 283.985 Z" fill="#000000" fill-rule="nonzero" fill-opacity="1" /><path clip-path="url(#clip390)" d="M1247.42 266.531 L1223.53 275.027 L1247.42 283.476 L1247.42 287.689 L1217.74 276.925 L1217.74 273.082 L1247.42 262.319 L1247.42 266.531 Z" fill="#000000" fill-rule="nonzero" fill-opacity="1" /><path clip-path="url(#clip390)" d="M1272.62 255.305 L1290.98 255.305 L1290.98 259.24 L1276.91 259.24 L1276.91 267.712 Q1277.92 267.365 1278.94 267.203 Q1279.96 267.018 1280.98 267.018 Q1286.77 267.018 1290.15 270.189 Q1293.53 273.36 1293.53 278.777 Q1293.53 284.355 1290.05 287.457 Q1286.58 290.536 1280.26 290.536 Q1278.09 290.536 1275.82 290.166 Q1273.57 289.795 1271.17 289.054 L1271.17 284.355 Q1273.25 285.49 1275.47 286.045 Q1277.69 286.601 1280.17 286.601 Q1284.17 286.601 1286.51 284.494 Q1288.85 282.388 1288.85 278.777 Q1288.85 275.166 1286.51 273.059 Q1284.17 270.953 1280.17 270.953 Q1278.3 270.953 1276.42 271.369 Q1274.57 271.786 1272.62 272.666 L1272.62 255.305 Z" fill="#000000" fill-rule="nonzero" fill-opacity="1" /><path clip-path="url(#clip390)" d="M1302.74 283.985 L1307.62 283.985 L1307.62 289.865 L1302.74 289.865 L1302.74 283.985 Z" fill="#000000" fill-rule="nonzero" fill-opacity="1" /><path clip-path="url(#clip390)" d="M1327.81 258.383 Q1324.2 258.383 1322.37 261.948 Q1320.56 265.49 1320.56 272.619 Q1320.56 279.726 1322.37 283.291 Q1324.2 286.832 1327.81 286.832 Q1331.44 286.832 1333.25 283.291 Q1335.08 279.726 1335.08 272.619 Q1335.08 265.49 1333.25 261.948 Q1331.44 258.383 1327.81 258.383 M1327.81 254.68 Q1333.62 254.68 1336.67 259.286 Q1339.75 263.869 1339.75 272.619 Q1339.75 281.346 1336.67 285.953 Q1333.62 290.536 1327.81 290.536 Q1322 290.536 1318.92 285.953 Q1315.86 281.346 1315.86 272.619 Q1315.86 263.869 1318.92 259.286 Q1322 254.68 1327.81 254.68 Z" fill="#000000" fill-rule="nonzero" fill-opacity="1" /></svg>
